<svg viewBox="0 0 24 24" xmlns="http://www.w3.org/2000/svg">
  <path d="M12 1.496c-.277 0-.554.057-.812.172-.797.354-.983.937-1.438 1.723L1.525 17.598c-.456.788-.871 1.24-.78 2.109.058.564.355 1.077.814 1.41.707.514 1.306.383 2.216.383h16.45c.91 0 1.51.131 2.216-.383.458-.333.754-.846.813-1.41.09-.87-.323-1.321-.78-2.11L14.25 3.392c-.455-.786-.641-1.369-1.437-1.723A2 2 0 0 0 12 1.496m-.055 1.98q.018.003.055.02c.093-.041.077-.011 0 .098.092.129.273.373.52.799L20.744 18.6c.246.424.367.706.434.851.137-.012.171-.012.088.049-.011.103-.03.075-.088-.049-.16.015-.463.049-.953.049H3.775c-.49 0-.793-.034-.953-.049-.057.124-.077.152-.088.049-.083-.06-.049-.061.088-.049.067-.145.188-.427.434-.851L11.48 4.393c.247-.426.429-.67.52-.8-.056-.079-.085-.12-.055-.116M12 8a1 1 0 0 0-1 1v4a1 1 0 0 0 1 1 1 1 0 0 0 1-1V9a1 1 0 0 0-1-1m0 8a1 1 0 0 0-1 1 1 1 0 0 0 1 1h.01a1 1 0 0 0 1-1 1 1 0 0 0-1-1z"/>
</svg>
