<svg viewBox="0 0 24 24" xmlns="http://www.w3.org/2000/svg">
  <path d="M11.371 2c-.568.002-.973.02-1.406.137a4 4 0 0 0-2.828 2.828c-.08.294-.056.707-.07 1.035H5.198c-1.12 0-1.818-.052-2.56.326A3 3 0 0 0 1.326 7.64C.948 8.38 1 9.079 1 10.199v7.602c0 1.12-.052 1.818.326 2.56a3 3 0 0 0 1.313 1.313c.742.378 1.44.326 2.56.326h13.602c1.12 0 1.818.052 2.56-.326a3 3 0 0 0 1.313-1.313c.378-.742.326-1.44.326-2.56v-7.602c0-1.12.052-1.818-.326-2.56a3 3 0 0 0-1.312-1.313c-.743-.378-1.44-.326-2.56-.326h-1.868c-.014-.327.008-.741-.07-1.035a4 4 0 0 0-2.829-2.828C13.458 1.982 12.93 2 12 2zM12 4c.93 0 1.332.019 1.518.068a2 2 0 0 1 1.414 1.414c.017.064.013.392.023.518h-5.91c.01-.126.006-.454.023-.518a2 2 0 0 1 1.414-1.414C10.668 4.018 11.07 4 12 4M5.2 8h13.6c1.12 0 1.54.052 1.652.11a1 1 0 0 1 .438.437c.058.113.11.532.11 1.652v7.602c0 1.12-.052 1.539-.11 1.652-.096.188-.25.342-.438.438-.113.057-.532.109-1.652.109H5.2c-1.12 0-1.539-.052-1.652-.11a1 1 0 0 1-.438-.437c-.057-.113-.11-.532-.11-1.652v-7.602c0-1.12.053-1.539.11-1.652.096-.188.25-.342.438-.438C3.66 8.052 4.079 8 5.199 8"/>
</svg>
