<svg viewBox="0 0 24 24" xmlns="http://www.w3.org/2000/svg">
  <path d="M8 1a1 1 0 0 0-1 1v1.014c-1.16.001-2.044.028-2.816.422a4 4 0 0 0-1.748 1.748C1.948 6.14 2 7.12 2 8.8v8.4c0 1.68-.052 2.66.436 3.616a4 4 0 0 0 1.748 1.748C5.14 23.052 6.12 23 7.8 23h8.398c1.68 0 2.661.052 3.617-.436a4 4 0 0 0 1.748-1.748c.488-.956.436-1.937.436-3.617V8.8c0-1.68.052-2.66-.436-3.616a4 4 0 0 0-1.748-1.748c-.772-.394-1.657-.42-2.816-.422V2a1 1 0 0 0-1-1 1 1 0 0 0-1 1v1H9V2a1 1 0 0 0-1-1m1 4h6v1a1 1 0 0 0 1 1 1 1 0 0 0 1-1v-.936c.813.026 1.678.037 1.908.155.377.192.681.496.873.873.167.327.219 1.029.219 2.709V9H4v-.2c0-1.68.052-2.381.219-2.708.192-.377.496-.681.873-.873.23-.118 1.095-.13 1.908-.155V6a1 1 0 0 0 1 1 1 1 0 0 0 1-1Zm-5 6h16v6.2c0 1.68-.052 2.38-.219 2.708a2 2 0 0 1-.873.873c-.327.167-1.029.219-2.709.219H7.801c-1.68 0-2.382-.052-2.71-.219a2 2 0 0 1-.872-.873C4.052 19.581 4 18.88 4 17.2Z"/>
</svg>
