<svg viewBox="0 0 24 24" xmlns="http://www.w3.org/2000/svg">
  <path d="M12.062 1.965q-.322.002-.643.025a10.4 10.4 0 0 0-3.306.793C3.938 4.548.853 9.11 2.355 14.625a10.01 10.01 0 0 0 10.969 7.283 9.98 9.98 0 0 0 7.834-5.894 10 10 0 0 0 .508-1.451 10 10 0 0 0 .125-.557l.201.201a1 1 0 0 0 1.414 0 1 1 0 0 0 0-1.414l-2-2a1 1 0 0 0-1.414 0l-2 2a1 1 0 0 0 0 1.414 1 1 0 0 0 1.414 0l.377-.377c-.017.073-.03.148-.049.22a8 8 0 0 1-1.34 2.755 8 8 0 0 1-5.334 3.121A7.986 7.986 0 0 1 4.285 14.1c-1.253-4.601 1.21-8.038 4.607-9.475s7.572-.81 10 3.313a1 1 0 0 0 1.37.353 1 1 0 0 0 .355-1.369c-2.045-3.472-5.332-4.98-8.555-4.957M12 6a1 1 0 0 0-1 1v5a1 1 0 0 0 .445.832l3 2a1 1 0 0 0 1.387-.277 1 1 0 0 0-.278-1.387L13 11.465V7a1 1 0 0 0-1-1"/>
</svg>
