<svg viewBox="0 0 24 24" xmlns="http://www.w3.org/2000/svg">
  <path d="M12 1.193a2 2 0 0 0-.457.053c-.407.096-.645.277-.961.483L2.184 7.188c-.266.172-.49.298-.72.572-.17.204-.298.44-.376.695C.983 8.796 1 9.052 1 9.37v5.262c0 .317-.017.573.088.914.078.254.206.491.377.695.229.274.453.398.719.57v.003l8.4 5.459c.316.205.552.386.959.482.3.07.613.07.914 0 .407-.096.643-.277.959-.482l8.4-5.46v-.001c.266-.173.49-.297.72-.57a2 2 0 0 0 .376-.696c.105-.341.088-.597.088-.914V9.369c0-.317.017-.572-.088-.914a2 2 0 0 0-.377-.695c-.229-.274-.453-.4-.719-.572l-8.398-5.46h-.002c-.315-.204-.553-.386-.959-.482A2 2 0 0 0 12 1.193m-1 2.649v4.615l-3.615 2.352-2.776-1.805c-.415-.27-.636-.46-.732-.531l-.043.027c-.03-.07-.02-.074.043-.027zm2 0 7.123 4.63c.063-.046.072-.042.043.028l-.043-.027c-.096.07-.317.261-.732.53l-2.776 1.806L13 8.457zm-1 6.35L14.781 12 12 13.809 9.219 12zm-9 .148c.17.108.322.211.52.34L5.55 12l-2.03 1.32c-.198.129-.35.232-.52.34zm18 0v3.32c-.17-.108-.322-.211-.52-.34L18.45 12l2.03-1.32c.198-.129.35-.232.52-.34M7.385 13.19 11 15.543v4.615l-7.123-4.63c-.063.046-.072.042-.043-.028l.043.027c.096-.07.317-.261.733-.53zm9.23 0 2.776 1.805c.415.27.637.46.732.531l.043-.027c.03.07.02.074-.043.027L13 20.158v-4.615z"/>
</svg>
