<svg viewBox="0 0 24 24" xmlns="http://www.w3.org/2000/svg">
  <path d="M7.662 1c-1.03.008-1.761.07-2.478.436a4 4 0 0 0-1.748 1.748C2.948 4.14 3 5.12 3 6.8v10.398c0 1.68-.052 2.66.436 3.617a4 4 0 0 0 1.748 1.748C6.14 23.05 7.12 23 8.8 23h6.398c1.68 0 2.661.051 3.617-.436a4 4 0 0 0 1.748-1.748c.488-.956.436-1.937.436-3.617v-9.2a1 1 0 0 0-.293-.706l-6-6A1 1 0 0 0 14 1H8.8c-.42 0-.795-.003-1.138 0m1.139 2H13v3.4c0 .56-.05.98.219 1.508.191.376.496.682.873.873.528.27.948.219 1.508.219H19v8.2c0 1.68-.052 2.38-.219 2.708a2 2 0 0 1-.873.873c-.327.167-1.029.219-2.709.219H8.801c-1.68 0-2.382-.052-2.71-.219a2 2 0 0 1-.872-.873C5.052 19.581 5 18.88 5 17.2V6.801c0-1.68.052-2.382.219-2.709.192-.376.496-.681.873-.873C6.419 3.052 7.12 3 8.8 3zM15 4.414 17.586 7H15.6c-.32 0-.5-.017-.579-.021.004.059.001.064-.021.021-.043-.022-.038-.025.021-.021C15.017 6.899 15 6.72 15 6.4zM12 11a1 1 0 0 0-1 1v3.586l-1.293-1.293a1 1 0 0 0-1.414 0 1 1 0 0 0 0 1.414l3 3a1 1 0 0 0 1.414 0l3-3a1 1 0 0 0 0-1.414 1 1 0 0 0-1.414 0L13 15.586V12a1 1 0 0 0-1-1"/>
</svg>
