<svg viewBox="0 0 24 24" xmlns="http://www.w3.org/2000/svg">
  <path d="M5.2 2c-1.12 0-1.819-.052-2.561.326A3 3 0 0 0 1.326 3.64C.948 4.38 1 5.079 1 6.199V16.2c0 1.68-.052 2.66.436 3.616a4 4 0 0 0 1.748 1.748C4.14 22.052 5.12 22 6.8 22h10.398c1.68 0 2.661.052 3.617-.436a4 4 0 0 0 1.748-1.748c.488-.956.436-1.937.436-3.617v-4.398c0-1.68.052-2.661-.436-3.617a4 4 0 0 0-1.748-1.748C19.86 5.948 18.88 6 17.2 6h-3.582l-.838-1.678c-.32-.642-.51-1.067-.916-1.465a3 3 0 0 0-1.12-.693C10.204 1.98 9.738 2 9.02 2Zm0 2h3.82c.718 0 .972.021 1.069.055q.212.073.373.23c.073.072.206.29.527.932l.393.783h-8.37c.011-.842.046-1.354.096-1.453.096-.188.25-.342.438-.438C3.66 4.052 4.079 4 5.199 4M3 8h14.2c1.68 0 2.38.052 2.708.219.377.192.681.496.873.873.167.327.219 1.029.219 2.709v4.398c0 1.68-.052 2.382-.219 2.71a2 2 0 0 1-.873.872c-.327.167-1.029.219-2.709.219H6.801c-1.68 0-2.382-.052-2.71-.219a2 2 0 0 1-.872-.873C3.052 18.581 3 17.88 3 16.2Z"/>
</svg>
