<svg viewBox="0 0 24 24" xmlns="http://www.w3.org/2000/svg">
  <path d="M4.201 1.996c-.379-.001-.713.02-1.11.223a2 2 0 0 0-.872.873C1.949 3.62 2 4.04 2 4.6v3.8c0 .56-.05.98.219 1.508.191.376.497.682.873.873.528.27.948.219 1.508.219h3.8c.56 0 .98.05 1.508-.219.376-.191.682-.497.873-.873.27-.528.219-.948.219-1.508V4.6c0-.56.05-.98-.219-1.508a2 2 0 0 0-.873-.873C9.38 1.949 8.96 2 8.4 2H4.6q-.21-.001-.399-.004m11 0c-.379-.001-.713.02-1.11.223a2 2 0 0 0-.872.873C12.949 3.62 13 4.04 13 4.6v3.8c0 .56-.05.98.219 1.508.191.376.496.682.873.873.528.27.948.219 1.508.219h3.8c.56 0 .98.05 1.508-.219.377-.191.682-.497.873-.873.27-.528.219-.948.219-1.508V4.6c0-.56.05-.98-.219-1.508a2 2 0 0 0-.873-.873C20.38 1.949 19.96 2 19.4 2h-3.8q-.21-.001-.399-.004M4.021 3.973a.2.2 0 0 1 0 .049C4.101 4.017 4.28 4 4.6 4h3.8c.32 0 .499.017.578.022-.003-.06 0-.065.022-.022.043.022.038.025-.022.022C8.983 4.1 9 4.28 9 4.6v3.8c0 .32-.017.5-.022.579.06-.004.065 0 .022.021-.022.043-.025.038-.022-.021C8.9 8.983 8.72 9 8.4 9H4.6c-.32 0-.5-.017-.579-.021.004.059 0 .064-.021.021-.043-.022-.038-.025.021-.021C4.016 8.899 4 8.72 4 8.4V4.6c0-.32.016-.5.021-.578-.06.003-.064 0-.021-.022q.019-.038.021-.027m11 0a.2.2 0 0 1 0 .049c.08-.005.258-.022.578-.022H19.4c.32 0 .499.017.578.022-.003-.06 0-.065.022-.022.043.022.038.025-.022.022.005.079.022.258.022.578v3.8c0 .32-.017.5-.022.579.06-.004.065 0 .022.021-.022.043-.025.038-.022-.021C19.9 8.983 19.72 9 19.4 9h-3.8c-.32 0-.5-.017-.579-.021.004.059 0 .064-.021.021-.043-.022-.038-.025.021-.021C15.016 8.899 15 8.72 15 8.4V4.6c0-.32.016-.5.021-.578-.06.003-.064 0-.021-.022q.019-.038.021-.027m-10.82 9.023c-.379-.001-.713.02-1.11.223a2 2 0 0 0-.872.873C1.949 14.62 2 15.04 2 15.6v3.8c0 .56-.05.98.219 1.508.191.377.497.682.873.873.528.27.948.219 1.508.219h3.8c.56 0 .98.05 1.508-.219.376-.191.682-.496.873-.873.27-.528.219-.948.219-1.508v-3.8c0-.56.05-.98-.219-1.508a2 2 0 0 0-.873-.873C9.38 12.949 8.96 13 8.4 13H4.6q-.21-.001-.399-.004m11 0c-.379-.002-.713.02-1.11.223a2 2 0 0 0-.872.873c-.27.528-.219.948-.219 1.508v3.8c0 .56-.05.98.219 1.508.191.376.497.682.873.873.528.27.948.219 1.508.219h3.8c.56 0 .98.05 1.508-.219.376-.191.682-.497.873-.873.27-.528.219-.948.219-1.508v-3.8c0-.56.05-.98-.219-1.508a2 2 0 0 0-.873-.873C20.38 12.949 19.96 13 19.4 13h-3.8q-.21-.001-.399-.004m-11.18 1.977a.2.2 0 0 1 0 .049c.08-.005.258-.022.578-.022H8.4c.32 0 .499.017.578.022-.003-.06 0-.065.022-.022.043.022.038.025-.022.022.005.079.022.258.022.578v3.8c0 .32-.017.5-.022.579.06-.004.065 0 .022.021-.022.043-.025.038-.022-.021C8.9 19.983 8.72 20 8.4 20H4.6c-.32 0-.5-.017-.579-.021.004.059 0 .064-.021.021-.043-.022-.038-.025.021-.021C4.016 19.899 4 19.72 4 19.4v-3.8c0-.32.016-.5.021-.578-.06.003-.064 0-.021-.022q.019-.038.021-.027m11 0a.2.2 0 0 1 0 .049c.08-.005.258-.022.578-.022H19.4c.32 0 .499.017.578.022-.003-.06 0-.065.022-.022.043.022.038.025-.022.022.005.079.022.258.022.578v3.8c0 .32-.017.5-.022.579.06-.004.065 0 .022.021-.022.043-.025.038-.022-.021-.079.004-.258.021-.578.021h-3.8c-.32 0-.5-.017-.579-.021.004.059 0 .064-.021.021-.043-.022-.038-.025.021-.021-.005-.08-.021-.259-.021-.579v-3.8c0-.32.016-.5.021-.578-.06.003-.064 0-.021-.022q.019-.038.021-.027"/>
</svg>
