<svg viewBox="0 0 24 24" xmlns="http://www.w3.org/2000/svg">
  <path d="M12 1C5.937 1 1 5.937 1 12s4.937 11 11 11 11-4.937 11-11S18.063 1 12 1m0 2c4.982 0 9 4.018 9 9s-4.018 9-9 9-9-4.018-9-9 4.018-9 9-9m-.105 2.996a4 4 0 0 0-3.749 2.672 1 1 0 0 0 .612 1.275 1 1 0 0 0 1.275-.611 1.998 1.998 0 0 1 3.416-.625 2 2 0 0 1 .47 1.291V10c0 .5-.432 1.003-1.054 1.418s-1.261.633-1.261.633a1 1 0 0 0-.633 1.265 1 1 0 0 0 1.265.633s.86-.282 1.739-.867c.877-.585 1.944-1.581 1.945-3.08a4 4 0 0 0-4.025-4.006M12 16a1 1 0 0 0-1 1 1 1 0 0 0 1 1h.01a1 1 0 0 0 1-1 1 1 0 0 0-1-1z"/>
</svg>
