<svg viewBox="0 0 24 24" xmlns="http://www.w3.org/2000/svg">
  <path d="M6.662 2c-1.03.008-1.761.07-2.478.436a4 4 0 0 0-1.748 1.748C1.948 5.14 2 6.12 2 7.8v8.398c0 1.68-.052 2.661.436 3.617a4 4 0 0 0 1.748 1.748C5.14 22.052 6.12 22 7.8 22h8.398c1.68 0 2.661.052 3.617-.436a4 4 0 0 0 1.748-1.748c.488-.956.436-1.937.436-3.617V14a1 1 0 0 0-1-1 1 1 0 0 0-1 1v2.2c0 1.68-.052 2.38-.219 2.708a2 2 0 0 1-.873.873c-.327.167-1.029.219-2.709.219H7.801c-1.68 0-2.382-.052-2.71-.219a2 2 0 0 1-.872-.873C4.052 18.581 4 17.88 4 16.2V7.801c0-1.68.052-2.382.219-2.71.192-.376.496-.68.873-.872C5.419 4.052 6.12 4 7.8 4H10a1 1 0 0 0 1-1 1 1 0 0 0-1-1H7.8c-.42 0-.795-.003-1.138 0M15 2a1 1 0 0 0-1 1 1 1 0 0 0 1 1h3.586l-7.293 7.293a1 1 0 0 0 0 1.414 1 1 0 0 0 1.414 0L20 5.414V9a1 1 0 0 0 1 1 1 1 0 0 0 1-1V3a1 1 0 0 0-.033-.166 1 1 0 0 0-.028-.143 1 1 0 0 0-.232-.398 1 1 0 0 0-.324-.217A1 1 0 0 0 21 2Z"/>
</svg>
