<svg stroke="currentColor" stroke-linecap="round" stroke-linejoin="round" stroke-width="2" viewBox="0 0 24 24" xmlns="http://www.w3.org/2000/svg">
  <path d="M7 2.95A4.05 4.05 0 0 0 2.95 7v10A4.05 4.05 0 0 0 7 21.05h10A4.05 4.05 0 0 0 21.05 17V7A4.05 4.05 0 0 0 17 2.95zm0 .1h10A3.95 3.95 0 0 1 20.95 7v10A3.95 3.95 0 0 1 17 20.95H7A3.95 3.95 0 0 1 3.05 17V7A3.95 3.95 0 0 1 7 3.05m.992 4.9A.05.05 0 0 0 7.95 8v.01a.05.05 0 0 0 .05.05h.01l.006-.001.002-.002h.002l.005-.002.002-.002.002-.002h.002l.002-.002.002-.002.002-.002.002-.002.002-.002v-.002l.002-.002.002-.002v-.002l.002-.006.002-.002v-.002l.002-.005V7.99l-.002-.006-.002-.002V7.98l-.002-.005-.002-.002-.002-.002v-.002l-.002-.002-.002-.002-.002-.002-.002-.002-.002-.002H8.03l-.002-.002-.002-.002h-.002l-.005-.002-.002-.002h-.002l-.006-.002zm.008 3a.05.05 0 0 0-.05.05v5a.05.05 0 0 0 .05.05.05.05 0 0 0 .05-.05v-5a.05.05 0 0 0-.05-.05m4 0a.05.05 0 0 0-.05.05v2q.001-.383.1-.695V11a.05.05 0 0 0-.05-.05m.05 1.355V13c0-.654.244-1.139.608-1.463.365-.324.853-.486 1.342-.486s.977.162 1.342.486c.364.324.607.809.607 1.463v3a.05.05 0 0 0 .051.05.05.05 0 0 0 .05-.05v-3c0-.68-.256-1.195-.642-1.537-.385-.343-.897-.514-1.408-.514s-1.023.171-1.408.514a1.86 1.86 0 0 0-.541.842m0 .695a.05.05 0 0 1-.05.05.05.05 0 0 1-.05-.05v3a.05.05 0 0 0 .05.05.05.05 0 0 0 .05-.05z"/>
</svg>
