<svg viewBox="0 0 24 24" xmlns="http://www.w3.org/2000/svg">
  <path d="M6.662 2c-1.03.008-1.761.07-2.478.436a4 4 0 0 0-1.748 1.748C1.948 5.14 2 6.12 2 7.8v8.398c0 1.68-.052 2.661.436 3.617a4 4 0 0 0 1.748 1.748C5.14 22.052 6.12 22 7.8 22H9a1 1 0 0 0 1-1 1 1 0 0 0-1-1H7.8c-1.68 0-2.381-.052-2.708-.219a2 2 0 0 1-.873-.873C4.052 18.581 4 17.88 4 16.2V7.801c0-1.68.052-2.382.219-2.71.192-.376.496-.68.873-.872C5.419 4.052 6.12 4 7.8 4H9a1 1 0 0 0 1-1 1 1 0 0 0-1-1H7.8c-.42 0-.795-.003-1.138 0m9.182 4.012a1 1 0 0 0-.551.281 1 1 0 0 0 0 1.414L18.586 11H9a1 1 0 0 0-1 1 1 1 0 0 0 1 1h9.586l-3.293 3.293a1 1 0 0 0 0 1.414 1 1 0 0 0 1.414 0l5-5a1 1 0 0 0 .26-.627L22 12a1 1 0 0 0-.033-.166 1 1 0 0 0 0-.094l-.028-.049a1 1 0 0 0-.232-.398l-5-5a1 1 0 0 0-.863-.281"/>
</svg>
