<svg viewBox="0 0 24 24" xmlns="http://www.w3.org/2000/svg">
  <path d="M5.662 3c-1.03.008-1.761.07-2.478.436a4 4 0 0 0-1.748 1.748c-.29.568-.374 1.203-.407 1.931l-.002.076c-.018.48-.027.96-.027 1.61v6.398c0 1.68-.052 2.661.436 3.617a4 4 0 0 0 1.748 1.748C4.14 21.052 5.12 21 6.8 21h10.398c1.68 0 2.66.052 3.617-.436a4 4 0 0 0 1.748-1.748c.487-.956.436-1.937.436-3.617V8.801c0-.646-.01-1.121-.028-1.598a1 1 0 0 0-.008-.445c-.046-.588-.152-1.088-.4-1.574a4 4 0 0 0-1.748-1.748C19.86 2.948 18.879 3 17.199 3H6.8c-.42 0-.796-.003-1.139 0M6.8 5h10.398c1.68 0 2.381.052 2.709.219.376.192.681.496.873.873.031.062.017.419.04.512l-7.56 5.293c-.66.462-.912.606-1.02.632a1 1 0 0 1-.484 0c-.107-.026-.358-.17-1.019-.632l-7.56-5.293c.023-.093.009-.45.04-.512.192-.377.497-.681.873-.873C4.42 5.052 5.121 5 6.801 5zM3 8.92l6.592 4.615c.66.463 1.07.781 1.681.934.477.119.977.119 1.453 0 .612-.153 1.021-.471 1.682-.934L21 8.92v6.28c0 1.68-.052 2.38-.219 2.708a2 2 0 0 1-.873.873c-.327.167-1.029.219-2.709.219H6.801c-1.68 0-2.382-.052-2.709-.219a2 2 0 0 1-.873-.873C3.052 17.581 3 16.88 3 15.2z"/>
</svg>
