<svg viewBox="0 0 24 24" xmlns="http://www.w3.org/2000/svg">
  <path d="M12 1c-4.959 0-9 4.041-9 9 0 2.51 1.136 4.728 2.707 6.768s3.598 3.951 5.586 5.94a1 1 0 0 0 1.414 0c1.988-1.989 4.015-3.9 5.586-5.94S21 12.51 21 10c0-4.959-4.041-9-9-9m0 2c3.878 0 7 3.122 7 7 0 1.907-.864 3.691-2.293 5.547-1.243 1.613-2.974 3.275-4.707 4.996-1.733-1.72-3.464-3.383-4.707-4.996C5.863 13.69 5 11.907 5 10c0-3.878 3.122-7 7-7m0 3c-2.197 0-4 1.803-4 4s1.803 4 4 4 4-1.803 4-4-1.803-4-4-4m0 2c1.117 0 2 .884 2 2s-.884 2-2 2-2-.884-2-2 .884-2 2-2"/>
</svg>
