<svg viewBox="0 0 24 24" xmlns="http://www.w3.org/2000/svg">
  <path d="M8.135 1a1 1 0 0 0-.39.088C3.764 2.888 1 6.898 1 11.537 1 17.855 6.144 23 12.463 23c4.64 0 8.65-2.765 10.45-6.744a1 1 0 0 0-1.325-1.323 9.4 9.4 0 0 1-3.895.836A9.45 9.45 0 0 1 8.23 6.307c0-1.392.3-2.708.836-3.895a1 1 0 0 0-.537-1.34A1 1 0 0 0 8.135 1M6.45 4.258c-.121.668-.22 1.346-.22 2.049 0 6.318 5.144 11.463 11.462 11.463.703 0 1.38-.1 2.05-.221C18.008 19.647 15.405 21 12.462 21A9.45 9.45 0 0 1 3 11.537c0-2.943 1.353-5.546 3.451-7.28z"/>
</svg>
