<svg viewBox="0 0 24 24" xmlns="http://www.w3.org/2000/svg">
  <path d="M12 1a2.82 2.82 0 0 0-2.818 2.818v.155a.5.5 0 0 1-.082.27.5.5 0 0 1-.2.165 1 1 0 0 0-.103.022.5.5 0 0 1-.553-.1L8.2 4.285a2.83 2.83 0 0 0-1.994-.828 2.823 2.823 0 0 0-2.82 2.82 2.82 2.82 0 0 0 .826 1.994l.047.047a.5.5 0 0 1 .1.551l-.024.059a.5.5 0 0 1-.457.326h-.059a2.819 2.819 0 0 0 0 5.637h.155a.5.5 0 0 1 .453.302l.004.01a.5.5 0 0 1-.1.553l-.047.047a2.82 2.82 0 0 0-.826 1.992 2.82 2.82 0 0 0 2.82 2.82 2.82 2.82 0 0 0 1.994-.826l.047-.047a.5.5 0 0 1 .551-.1l.059.024a.5.5 0 0 1 .326.457v.059a2.819 2.819 0 0 0 4.81 1.992h.002a2.82 2.82 0 0 0 .825-1.992v-.155a.5.5 0 0 1 .302-.453l.01-.004a.5.5 0 0 1 .553.1l.047.047a2.818 2.818 0 0 0 4.597-3.072v-.002a2.8 2.8 0 0 0-.61-.913v-.002l-.048-.046a.5.5 0 0 1-.1-.551l.005-.01a.5.5 0 0 1 .183-.219V14.9a.5.5 0 0 1 .27-.082h.082a2.819 2.819 0 0 0 0-5.636h-.155a.5.5 0 0 1-.27-.082.5.5 0 0 1-.165-.2 1 1 0 0 0-.022-.103.5.5 0 0 1 .098-.549l.002-.004.045-.045h.002a2.83 2.83 0 0 0 .611-3.074 2.82 2.82 0 0 0-2.605-1.74 2.82 2.82 0 0 0-1.994.826l-.047.047a.5.5 0 0 1-.551.1l-.01-.004a.5.5 0 0 1-.219-.184H14.9a.5.5 0 0 1-.082-.27v-.082A2.82 2.82 0 0 0 12 1m0 2a.817.817 0 0 1 .818.818v.086a2.5 2.5 0 0 0 1.512 2.284 2.5 2.5 0 0 0 2.752-.5l.006-.008.055-.055h.002a.82.82 0 0 1 1.156 0h.002a.82.82 0 0 1 0 1.158l-.055.055-.008.008a2.5 2.5 0 0 0-.673 1.302 2.5 2.5 0 0 0 .132 1.34 1 1 0 0 0 .037.178 2.5 2.5 0 0 0 2.288 1.516h.158A.816.816 0 0 1 21 12a.817.817 0 0 1-.818.818h-.086a2.5 2.5 0 0 0-2.283 1.512c-.2.455-.263.96-.174 1.45h.002a2.5 2.5 0 0 0 .672 1.302l.007.006.055.055v.002a.82.82 0 0 1 0 1.156v.002a.82.82 0 0 1-1.158 0l-.055-.055-.008-.008a2.5 2.5 0 0 0-1.302-.673 2.5 2.5 0 0 0-1.45.173 2.5 2.5 0 0 0-1.511 2.284v.158a.816.816 0 0 1-.819.818.816.816 0 0 1-.818-.818v-.106a2.5 2.5 0 0 0-.465-1.394 2.5 2.5 0 0 0-1.146-.873 2.5 2.5 0 0 0-1.422-.17v.002a2.5 2.5 0 0 0-1.303.672l-.006.007-.055.055h-.002a.82.82 0 0 1-1.156 0h-.002a.82.82 0 0 1 0-1.158l.002-.002.055-.053.006-.008c.35-.357.584-.811.674-1.302a2.5 2.5 0 0 0-.174-1.45 2.5 2.5 0 0 0-2.283-1.511h-.159A.816.816 0 0 1 3 12.072a.816.816 0 0 1 .818-.818h.106a2.5 2.5 0 0 0 1.394-.465c.4-.285.698-.689.873-1.146.191-.45.255-.942.168-1.422a2.5 2.5 0 0 0-.671-1.303L5.68 6.91l-.055-.053v-.002a.82.82 0 0 1 0-1.156v-.002a.82.82 0 0 1 1.158 0l.055.055.008.008c.357.349.811.584 1.302.674.452.081.914.03 1.34-.133a1 1 0 0 0 .178-.037 2.5 2.5 0 0 0 1.516-2.287v-.159A.816.816 0 0 1 12 3m0 5c-2.197 0-4 1.803-4 4s1.803 4 4 4 4-1.803 4-4-1.803-4-4-4m0 2c1.116 0 2 .884 2 2s-.884 2-2 2-2-.884-2-2 .884-2 2-2"/>
</svg>
