<svg viewBox="0 0 24 24" xmlns="http://www.w3.org/2000/svg">
  <path d="M12 1a11 11 0 0 0-2.771.352 11 11 0 0 0-2.735 1.123A11 11 0 0 0 4.547 3.91c-.106.098-.205.203-.307.305l-.017.008-.008.017c-.091.092-.186.18-.274.274A11 11 0 0 0 2.76 6.027 11.04 11.04 0 0 0 1 12c0 6.063 4.937 11 11 11a11 11 0 0 0 5.014-1.207 11 11 0 0 0 1.896-1.234q.187-.15.367-.309.124-.11.245-.225c.085-.08.165-.165.248-.248h.007l.018-.027c.085-.086.174-.168.256-.256a11 11 0 0 0 1.361-1.797 11 11 0 0 0 .86-1.756q.096-.248.181-.503.077-.236.143-.475A11 11 0 0 0 23 12a11 11 0 0 0-7.043-10.266 11 11 0 0 0-2.096-.578l-.295-.045A11 11 0 0 0 12 1m0 2a9 9 0 0 1 1.283.09q.122.017.242.039a9 9 0 0 1 3.448 1.369A8.98 8.98 0 0 1 21 12a9 9 0 0 1-.596 3.225 9 9 0 0 1-1.174 2.134q-.098.131-.2.256L6.382 4.97a9 9 0 0 1 2.11-1.26A8.9 8.9 0 0 1 12 3.002zM4.97 6.385 17.618 19.03a9 9 0 0 1-1.979 1.203A8.9 8.9 0 0 1 12 21c-4.982 0-9-4.018-9-9a9 9 0 0 1 1.72-5.293q.121-.164.25-.323z"/>
</svg>
