<svg viewBox="0 0 24 24" xmlns="http://www.w3.org/2000/svg">
  <path d="M12 1a1 1 0 0 0-1 1v2a1 1 0 0 0 1 1 1 1 0 0 0 1-1V2a1 1 0 0 0-1-1M4.9 3.9a1 1 0 0 0-.707.293 1 1 0 0 0 0 1.414l1.414 1.415a1 1 0 0 0 1.415 0 1 1 0 0 0 0-1.415L5.607 4.193A1 1 0 0 0 4.9 3.9m14.2 0a1 1 0 0 0-.708.293l-1.414 1.414a1 1 0 0 0 0 1.415 1 1 0 0 0 1.414 0l1.414-1.415a1 1 0 0 0 0-1.414A1 1 0 0 0 19.1 3.9M12 6c-3.302 0-6 2.698-6 6s2.698 6 6 6 6-2.698 6-6-2.698-6-6-6m0 2c2.22 0 4 1.779 4 4s-1.78 4-4 4c-2.221 0-4-1.779-4-4s1.779-4 4-4M2 11a1 1 0 0 0-1 1 1 1 0 0 0 1 1h2a1 1 0 0 0 1-1 1 1 0 0 0-1-1zm18 0a1 1 0 0 0-1 1 1 1 0 0 0 1 1h2a1 1 0 0 0 1-1 1 1 0 0 0-1-1zM6.314 16.69a1 1 0 0 0-.707.292l-1.414 1.415a1 1 0 0 0 0 1.414 1 1 0 0 0 1.414 0l1.414-1.414a1 1 0 0 0 0-1.415 1 1 0 0 0-.707-.293m11.37 0a1 1 0 0 0-.706.292 1 1 0 0 0 0 1.415l1.414 1.414a1 1 0 0 0 1.414 0 1 1 0 0 0 0-1.414l-1.414-1.415a1 1 0 0 0-.707-.293M12 19a1 1 0 0 0-1 1v2a1 1 0 0 0 1 1 1 1 0 0 0 1-1v-2a1 1 0 0 0-1-1"/>
</svg>
