<svg viewBox="0 0 24 24" xmlns="http://www.w3.org/2000/svg">
  <path d="M10.432.998c-.704.003-1.236.044-1.793.328A3 3 0 0 0 7.327 2.64c-.35.684-.306 1.386-.301 2.361H3a1 1 0 0 0-1 1 1 1 0 0 0 1 1h1V17.2c0 1.68-.051 2.66.436 3.617a4 4 0 0 0 1.748 1.748C7.14 23.051 8.12 23 9.8 23h4.4c1.68 0 2.661.051 3.618-.436a4 4 0 0 0 1.748-1.748c.487-.956.435-1.937.435-3.617V7h1a1 1 0 0 0 1-1 1 1 0 0 0-1-1h-4.025c.005-.975.048-1.677-.301-2.361a3 3 0 0 0-1.312-1.313C14.619.948 13.922 1 12.8 1h-1.602zM11.2 3h1.6c1.12 0 1.54.052 1.652.11a1 1 0 0 1 .438.437c.05.1.085.611.096 1.453H9.014c.01-.842.045-1.353.096-1.453.096-.188.249-.342.437-.438C9.66 3.052 10.08 3 11.2 3M6 7h12v10.2c0 1.68-.052 2.38-.218 2.708a2 2 0 0 1-.873.873c-.328.167-1.03.219-2.71.219H9.802c-1.68 0-2.382-.052-2.709-.219a2 2 0 0 1-.873-.873C6.052 19.581 6 18.88 6 17.2zm4 3.5a1 1 0 0 0-1 1v5a1 1 0 0 0 1 1 1 1 0 0 0 1-1v-5a1 1 0 0 0-1-1m4 0a1 1 0 0 0-1 1v5a1 1 0 0 0 1 1 1 1 0 0 0 1-1v-5a1 1 0 0 0-1-1"/>
</svg>
