<svg viewBox="0 0 24 24" xmlns="http://www.w3.org/2000/svg">
  <path d="M12 2C8.698 2 6 4.698 6 8v1.223c-.27.064-.562.083-.816.213a4 4 0 0 0-1.748 1.748C2.948 12.14 3 13.12 3 14.8v1.398c0 1.68-.052 2.661.436 3.617a4 4 0 0 0 1.748 1.748C6.14 22.052 7.12 22 8.8 22h6.398c1.68 0 2.661.052 3.617-.436a4 4 0 0 0 1.748-1.748c.488-.956.436-1.937.436-3.617v-1.398c0-1.68.052-2.661-.436-3.617a4 4 0 0 0-1.748-1.748C17.86 8.948 16.88 9 15.2 9H8.801c-.324 0-.525.013-.801.014V8c0-2.221 1.779-4 4-4 1.649 0 3.052.99 3.668 2.4a1 1 0 0 0 1.316.516A1 1 0 0 0 17.5 5.6 6.01 6.01 0 0 0 12 2m-3.2 9h6.4c1.68 0 2.38.052 2.708.219.377.192.681.496.873.873.167.327.219 1.029.219 2.709v1.398c0 1.68-.052 2.382-.219 2.71a2 2 0 0 1-.873.872c-.327.167-1.029.219-2.709.219H8.801c-1.68 0-2.382-.052-2.71-.219a2 2 0 0 1-.872-.873C5.052 18.581 5 17.88 5 16.2v-1.398c0-1.68.052-2.382.219-2.71.192-.376.496-.68.873-.872C6.419 11.052 7.12 11 8.8 11m3.2 2.5a1 1 0 0 0-1 1v2a1 1 0 0 0 1 1 1 1 0 0 0 1-1v-2a1 1 0 0 0-1-1"/>
</svg>
