<svg viewBox="0 0 24 24" xmlns="http://www.w3.org/2000/svg">
  <path d="M12 1C5.937 1 1 5.937 1 12c0 3.308 1.544 6.185 3.863 8.203a1 1 0 0 0 .063.156 1 1 0 0 0 .17.002C6.999 21.934 9.346 23 12 23s5.001-1.066 6.904-2.639a1 1 0 0 0 .17-.002 1 1 0 0 0 .447-.416C21.641 17.937 23 15.141 23 12c0-6.063-4.937-11-11-11m0 2c4.982 0 9 4.018 9 9 0 2.296-.921 4.333-2.328 5.92C17.752 16.828 16.532 16 15 16H9c-1.531 0-2.753.828-3.672 1.92C3.921 16.333 3 14.296 3 12c0-4.982 4.018-9 9-9m0 1.5c-2.75 0-5 2.25-5 5s2.25 5 5 5 5-2.25 5-5-2.25-5-5-5m0 2c1.669 0 3 1.331 3 3s-1.331 3-3 3-3-1.331-3-3 1.331-3 3-3M9 18h6c.93 0 1.659.497 2.207 1.152C15.721 20.235 13.985 21 12 21s-3.721-.765-5.207-1.848C7.341 18.498 8.071 18 9 18"/>
</svg>
