<svg viewBox="0 0 24 24" xmlns="http://www.w3.org/2000/svg">
  <path d="M12 2C8.974 2 6.5 4.474 6.5 7.5S8.974 13 12 13s5.5-2.474 5.5-5.5S15.026 2 12 2m0 2c1.945 0 3.5 1.555 3.5 3.5S13.945 11 12 11a3.485 3.485 0 0 1-3.5-3.5C8.5 5.555 10.055 4 12 4M8.56 14.5c-.842.005-1.422.036-2.011.215a5 5 0 0 0-3.334 3.334C2.977 18.834 3 19.604 3 21a1 1 0 0 0 1 1 1 1 0 0 0 1-1c0-1.396.023-2.021.129-2.371a3 3 0 0 1 2-2c.35-.106.975-.129 2.371-.129h5c1.396 0 2.021.023 2.371.129a3 3 0 0 1 2 2c.106.35.129.975.129 2.371a1 1 0 0 0 1 1 1 1 0 0 0 1-1c0-1.396.023-2.166-.215-2.951a5 5 0 0 0-3.334-3.334c-.785-.238-1.555-.215-2.951-.215z"/>
</svg>
