<svg xmlns="http://www.w3.org/2000/svg" version="1.0" viewBox="0 0 512 512">
  <style>
    path {
      fill: black;
    }

    @media (prefers-color-scheme: dark) {
      path {
        fill: white;
      }
    }
  </style>
  <path
    d="M258.97 2.588c-11.775-.088-23.875.062-27.975.512-66 7.4-123 37-166.8 86.6-29.7 33.8-49.5 75.3-58.1 121.8-3 15.9-3.1 18-3.5 39-.5 26 1.4 44.2 7 67 2.6 10.7 8.5 28.599 10.9 33.199.8 1.5 1.5 3.3 1.5 4 0 4.1 27.6 51.9 31.9 55.3.4.3 1.7 1.8 3 3.5 6.4 8.4 17.4 20.1 28.1 30 9.8 9 12.301 11.002 21.801 17.802 4.8 3.4 8.9 6.399 9.2 6.699s1.6 1.2 3 1.9c1.4.8 7 4.099 12.5 7.299 12.5 7.3 38.5 18.701 48.5 21.301.8.3 5.8 1.6 11 2.9 20 5.3 38.9 7.9 58 8l14.6.1 5.5-3.3c11.4-7 15.4-20.6 9.5-32.7-5.4-10.9-12.3-14.1-32.6-14.9-7.4-.3-15.3-.899-17.5-1.199-9.6-1.4-27.6-5.7-37.4-9-13.2-4.4-39.4-17.1-38.5-18.6.4-.7.199-.8-.401-.4-.7.4-3.999-1.2-7.399-3.5-27-18.1-47.002-39.3-64.602-68.4-4-6.6-11.5-22.4-14.6-30.9-3.8-10-9-29.5-10.1-37.6-.3-2.5-.9-7-1.3-10-1.5-11.6-.5-53.1 1.4-56.1.2-.3.5-2.1.8-4 1.8-13.6 9.1-35.4 17.5-52.4 20.7-41.6 53-73.7 94.3-93.5 18-8.5 43.3-16.6 51.8-16.5 1.4 0 2.7-.3 3-.7 1-1.2 10-1.9 29.5-2.3 21.4-.4 30 .4 48.2 4.4 35 7.9 66.102 24.599 96.102 51.799l5.299 4.9-11.4 11.4c-12.4 12.5-13.7 14.3-13.7 19 0 3.8 4.7 9 8.2 9.1 1.3 0 20.9.101 43.5.201 33.4 0 41.8-.2 43.9-1.3 5.3-2.9 5.4-3.4 5.4-49.5 0-46.8 0-47-6-49.5-5.9-2.4-8.6-.901-22.1 12.6l-12.6 12.6-2.4-2.899c-2.6-3-17.1-16-22.9-20.5-33.5-25.8-71.7-42.801-112-49.701-6.3-1.1-13.1-2.3-15-2.6-2.8-.5-14.25-.824-26.025-.912zm-2.723 101.18a28.191 28.191 0 0 0-4.351.328c-2.5.4-5.9 1.401-7.5 2.201-4.7 2.4-11.1 10.098-12.5 14.898-.9 3.2-1.201 21.501-1.201 72.301-.1 67.1 0 68.1 2 72.5 2.7 5.8 8.6 11.4 14.2 13.6 4 1.6 8.8 1.801 47.6 1.801h43.1l4.801-2.4c19.9-9.6 20-36.6.1-46-4.8-2.3-5.6-2.4-33-2.4l-28-.1-.1-53.5c-.1-52-.2-53.6-2.2-58-4.463-9.625-12.983-15.193-22.948-15.23zm228.61 127.07a24.674 24.674 0 0 0-4.757.353c-9.9 1.7-18.2 9.602-20 19.102-.8 4.4-2.1 22.9-2.3 33.3 0 3.7 4.4 14.1 7 16.1 7.4 5.9 12.3 7.7 20.6 7.4 12.2-.4 21.5-9.2 23-21.6 1.4-11.1 1.8-32.3.7-36.2-2.888-10.674-13.201-18.211-24.242-18.454zm-26.895 101.5c-1.237 0-2.062.05-2.162.15-.2.3-1.3.601-2.4.801-2.6.4-9.5 4.6-11.6 7.2-.9 1.1-4 6.3-6.9 11.5-2.8 5.2-6.5 11.4-8.1 13.8-4.5 6.5-6 11.1-5.9 17.5.1 9.8 4.799 17.4 13.6 22 6.1 3.2 16.4 2.899 23.1-.601 6-3.1 9.2-6.599 15.9-17.898 10.1-16.9 11.798-20.801 12.198-28.301.4-6.3.202-7.6-2.398-12.5-4.3-8-12.001-13-20.701-13.5-1.75-.1-3.4-.15-4.637-.15zm-75.426 88.738c-3.087.037-6.087.411-8.037 1.111-1.6.6-6.1 3.1-9.9 5.5-10.1 6.5-32.2 17.301-40.6 19.801-4.9 1.5-9.7 5.4-13.1 10.6-3.2 5-3.4 5.9-3.4 13.4.1 8.9 1.4 12.5 7 18 7.4 7.5 16.798 9.3 27.698 5.4 7.9-2.8 29.6-12.6 36.4-16.5 19.1-10.8 24.501-15.2 27.701-22.4 2.6-5.9 2.5-14.4-.4-20.5-2.6-5.5-9.8-12.1-14.801-13.5-2.3-.65-5.475-.949-8.562-.912z" />
</svg>